# xmcd
#
# Track frame offsets: 
#        150
#        17020
#        31508
#        50406
#        65920
#        82992
#        103083
#        117370
#        133044
#        152095
#        168261
#        183396
#        198337
#        218275
#
# Disc length: 3123 seconds
#
# Revision: 2
# Processed by: cddbd v1.5.2PL0 Copyright (c) Steve Scherf et al.
# Submitted via: ExactAudioCopy v1.0b1
#
DISCID=b20c310e
DTITLE=Willy Denzey - #1 Number One
DYEAR=2003
DGENRE=R&B
TTITLE0=Tentation
TTITLE1=Le mur du son
TTITLE2=Life
TTITLE3=XL
TTITLE4=Cette lettre
TTITLE5=L'orphelin
TTITLE6=#1 Number One (Si tu le veux)
TTITLE7=Ma gueule
TTITLE8=Au firmament
TTITLE9=Que vous dire
TTITLE10=De quel droit
TTITLE11=Lucide
TTITLE12=Beauté
TTITLE13=Badaboom Remix (Bonus Track)
EXTD=
EXTT0=
EXTT1=
EXTT2=
EXTT3=
EXTT4=
EXTT5=
EXTT6=
EXTT7=
EXTT8=
EXTT9=
EXTT10=
EXTT11=
EXTT12=
EXTT13=
PLAYORDER=
